<svg width="680" height="620" viewBox="0 0 680 620" xmlns="http://www.w3.org/2000/svg" font-family="ui-sans-serif,system-ui,sans-serif">
  <defs><marker id="a" viewBox="0 0 10 10" refX="8" refY="5" markerWidth="6" markerHeight="6" orient="auto-start-reverse"><path d="M2 1L8 5L2 9" fill="none" stroke="#888" stroke-width="1.5" stroke-linecap="round" stroke-linejoin="round"/></marker></defs>
  <rect x="270" y="20" width="140" height="44" rx="8" fill="#F1EFE8" stroke="#B4B2A9" stroke-width="0.5"/>
  <text x="340" y="47" text-anchor="middle" font-size="14" font-weight="500" fill="#2C2C2A">Telegram user</text>
  <line x1="340" y1="64" x2="340" y2="96" stroke="#888" stroke-width="1.5" marker-end="url(#a)" marker-start="url(#a)"/>
  <rect x="180" y="96" width="320" height="56" rx="8" fill="#EEEDFE" stroke="#AFA9EC" stroke-width="0.5"/>
  <text x="340" y="120" text-anchor="middle" font-size="14" font-weight="500" fill="#26215C">aiogram 3 Dispatcher</text>
  <text x="340" y="139" text-anchor="middle" font-size="12" fill="#534AB7">polling · FSM · middlewares</text>
  <line x1="340" y1="152" x2="340" y2="168" stroke="#888" stroke-width="1" marker-end="url(#a)"/>
  <line x1="180" y1="168" x2="636" y2="168" stroke="#ccc" stroke-width="1"/>
  <rect x="40" y="176" width="108" height="56" rx="8" fill="#EEEDFE" stroke="#AFA9EC" stroke-width="0.5"/>
  <text x="94" y="200" text-anchor="middle" font-size="13" font-weight="500" fill="#26215C">start</text>
  <text x="94" y="218" text-anchor="middle" font-size="11" fill="#534AB7">/start · /menu</text>
  <rect x="162" y="176" width="108" height="56" rx="8" fill="#EEEDFE" stroke="#AFA9EC" stroke-width="0.5"/>
  <text x="216" y="200" text-anchor="middle" font-size="13" font-weight="500" fill="#26215C">interview</text>
  <text x="216" y="218" text-anchor="middle" font-size="11" fill="#534AB7">FSM · questions</text>
  <rect x="284" y="176" width="108" height="56" rx="8" fill="#EEEDFE" stroke="#AFA9EC" stroke-width="0.5"/>
  <text x="338" y="200" text-anchor="middle" font-size="13" font-weight="500" fill="#26215C">stats</text>
  <text x="338" y="218" text-anchor="middle" font-size="11" fill="#534AB7">score · leaderboard</text>
  <rect x="406" y="176" width="108" height="56" rx="8" fill="#EEEDFE" stroke="#AFA9EC" stroke-width="0.5"/>
  <text x="460" y="200" text-anchor="middle" font-size="13" font-weight="500" fill="#26215C">billing</text>
  <text x="460" y="218" text-anchor="middle" font-size="11" fill="#534AB7">Stars · Pro</text>
  <rect x="528" y="176" width="108" height="56" rx="8" fill="#EEEDFE" stroke="#AFA9EC" stroke-width="0.5"/>
  <text x="582" y="200" text-anchor="middle" font-size="13" font-weight="500" fill="#26215C">legal</text>
  <text x="582" y="218" text-anchor="middle" font-size="11" fill="#534AB7">TOS · 152-ФЗ</text>
  <line x1="94" y1="168" x2="94" y2="176" stroke="#ccc" stroke-width="1" marker-end="url(#a)"/>
  <line x1="216" y1="168" x2="216" y2="176" stroke="#ccc" stroke-width="1" marker-end="url(#a)"/>
  <line x1="338" y1="168" x2="338" y2="176" stroke="#ccc" stroke-width="1" marker-end="url(#a)"/>
  <line x1="460" y1="168" x2="460" y2="176" stroke="#ccc" stroke-width="1" marker-end="url(#a)"/>
  <line x1="582" y1="168" x2="582" y2="176" stroke="#ccc" stroke-width="1" marker-end="url(#a)"/>
  <line x1="216" y1="232" x2="216" y2="264" stroke="#888" stroke-width="1" marker-end="url(#a)"/>
  <rect x="40" y="264" width="168" height="56" rx="8" fill="#E1F5EE" stroke="#5DCAA5" stroke-width="0.5"/>
  <text x="124" y="288" text-anchor="middle" font-size="13" font-weight="500" fill="#04342C">question_gen</text>
  <text x="124" y="307" text-anchor="middle" font-size="11" fill="#0F6E56">generate · evaluate</text>
  <rect x="224" y="264" width="168" height="56" rx="8" fill="#E1F5EE" stroke="#5DCAA5" stroke-width="0.5"/>
  <text x="308" y="288" text-anchor="middle" font-size="13" font-weight="500" fill="#04342C">llm_client</text>
  <text x="308" y="307" text-anchor="middle" font-size="11" fill="#0F6E56">OpenRouter · retry</text>
  <rect x="408" y="264" width="168" height="56" rx="8" fill="#E1F5EE" stroke="#5DCAA5" stroke-width="0.5"/>
  <text x="492" y="288" text-anchor="middle" font-size="13" font-weight="500" fill="#04342C">UserMiddleware</text>
  <text x="492" y="307" text-anchor="middle" font-size="11" fill="#0F6E56">auto-create user</text>
  <line x1="208" y1="292" x2="224" y2="292" stroke="#888" stroke-width="1" marker-end="url(#a)"/>
  <line x1="308" y1="320" x2="258" y2="352" stroke="#888" stroke-width="1" marker-end="url(#a)"/>
  <line x1="460" y1="232" x2="430" y2="352" stroke="#ccc" stroke-width="1" stroke-dasharray="4 3" marker-end="url(#a)"/>
  <rect x="180" y="352" width="156" height="56" rx="8" fill="#FAECE7" stroke="#F0997B" stroke-width="0.5"/>
  <text x="258" y="376" text-anchor="middle" font-size="13" font-weight="500" fill="#4A1B0C">OpenRouter</text>
  <text x="258" y="395" text-anchor="middle" font-size="11" fill="#993C1D">Haiku · Sonnet</text>
  <rect x="352" y="352" width="156" height="56" rx="8" fill="#FAECE7" stroke="#F0997B" stroke-width="0.5"/>
  <text x="430" y="376" text-anchor="middle" font-size="13" font-weight="500" fill="#4A1B0C">Telegram Stars</text>
  <text x="430" y="395" text-anchor="middle" font-size="11" fill="#993C1D">XTR · Pro billing</text>
  <line x1="340" y1="232" x2="340" y2="456" stroke="#ccc" stroke-width="1" stroke-dasharray="4 3" marker-end="url(#a)"/>
  <rect x="40" y="464" width="128" height="56" rx="8" fill="#E6F1FB" stroke="#85B7EB" stroke-width="0.5"/>
  <text x="104" y="488" text-anchor="middle" font-size="13" font-weight="500" fill="#042C53">users</text>
  <text x="104" y="507" text-anchor="middle" font-size="11" fill="#185FA5">streak · score · pro</text>
  <rect x="184" y="464" width="128" height="56" rx="8" fill="#E6F1FB" stroke="#85B7EB" stroke-width="0.5"/>
  <text x="248" y="488" text-anchor="middle" font-size="13" font-weight="500" fill="#042C53">sessions</text>
  <text x="248" y="507" text-anchor="middle" font-size="11" fill="#185FA5">questions · answers</text>
  <rect x="328" y="464" width="128" height="56" rx="8" fill="#E6F1FB" stroke="#85B7EB" stroke-width="0.5"/>
  <text x="392" y="488" text-anchor="middle" font-size="13" font-weight="500" fill="#042C53">achievements</text>
  <text x="392" y="507" text-anchor="middle" font-size="11" fill="#185FA5">11 достижений</text>
  <rect x="472" y="464" width="128" height="56" rx="8" fill="#E6F1FB" stroke="#85B7EB" stroke-width="0.5"/>
  <text x="536" y="488" text-anchor="middle" font-size="13" font-weight="500" fill="#042C53">daily_usage</text>
  <text x="536" y="507" text-anchor="middle" font-size="11" fill="#185FA5">free tier limit</text>
  <rect x="220" y="552" width="240" height="44" rx="8" fill="#E6F1FB" stroke="#378ADD" stroke-width="1"/>
  <text x="340" y="579" text-anchor="middle" font-size="13" font-weight="500" fill="#042C53">SQLite + SQLAlchemy async</text>
  <line x1="104" y1="520" x2="280" y2="552" stroke="#ccc" stroke-width="0.5" marker-end="url(#a)"/>
  <line x1="248" y1="520" x2="310" y2="552" stroke="#ccc" stroke-width="0.5" marker-end="url(#a)"/>
  <line x1="392" y1="520" x2="370" y2="552" stroke="#ccc" stroke-width="0.5" marker-end="url(#a)"/>
  <line x1="536" y1="520" x2="400" y2="552" stroke="#ccc" stroke-width="0.5" marker-end="url(#a)"/>
  <line x1="124" y1="320" x2="104" y2="464" stroke="#ccc" stroke-width="0.5" stroke-dasharray="4 3" marker-end="url(#a)"/>
</svg>
